<svg width="90" height="40" viewBox="0 0 287.94 95.411" xmlns="http://www.w3.org/2000/svg"><g fill-rule="evenodd" fill="#7653FC"><path d="M 151.611 4.981 L 151.611 60.01 A 13.605 13.605 0 0 0 151.686 61.48 Q 151.764 62.197 151.924 62.798 A 5.892 5.892 0 0 0 152.271 63.77 A 6.075 6.075 0 0 0 152.985 64.953 A 4.722 4.722 0 0 0 154.028 65.943 Q 155.127 66.7 156.641 66.944 A 19.474 19.474 0 0 0 159.197 67.179 A 22.029 22.029 0 0 0 159.814 67.188 L 162.109 67.188 L 162.109 71.387 L 131.006 71.387 L 131.006 67.188 L 133.301 67.188 A 22.494 22.494 0 0 0 135.599 67.074 A 19.447 19.447 0 0 0 136.45 66.968 A 7.626 7.626 0 0 0 137.97 66.589 A 6.22 6.22 0 0 0 139.062 66.065 A 4.496 4.496 0 0 0 140.483 64.673 A 5.768 5.768 0 0 0 140.845 64.038 A 5.711 5.711 0 0 0 141.27 62.813 Q 141.504 61.807 141.504 60.498 L 141.504 4.981 L 131.934 4.981 A 12.217 12.217 0 0 0 130.385 5.074 Q 129.565 5.179 128.872 5.403 A 6.424 6.424 0 0 0 128.247 5.64 A 7.158 7.158 0 0 0 126.668 6.586 A 6.196 6.196 0 0 0 125.806 7.422 A 7.359 7.359 0 0 0 124.421 9.936 A 8.406 8.406 0 0 0 124.39 10.035 A 17.181 17.181 0 0 0 123.783 12.772 A 19.197 19.197 0 0 0 123.73 13.184 L 123.193 17.481 L 118.018 17.481 L 118.506 0 L 174.805 0 L 175.293 17.481 L 170.117 17.481 L 169.629 13.184 A 16.328 16.328 0 0 0 169.063 10.41 A 14.944 14.944 0 0 0 168.945 10.035 A 8.16 8.16 0 0 0 167.966 8.007 A 7.455 7.455 0 0 0 167.529 7.422 A 6.084 6.084 0 0 0 165.893 6.048 A 7.591 7.591 0 0 0 165.088 5.64 A 7.269 7.269 0 0 0 163.623 5.189 Q 162.592 4.981 161.328 4.981 L 151.611 4.981 Z M 252.246 63.575 L 251.855 63.575 A 940.846 940.846 0 0 0 251.953 66.077 A 761.182 761.182 0 0 0 252.051 68.409 A 66.624 66.624 0 0 1 252.11 69.841 A 74.483 74.483 0 0 1 252.124 70.337 A 613.786 613.786 0 0 0 252.148 71.308 A 505.158 505.158 0 0 0 252.173 72.217 A 280.771 280.771 0 0 0 252.197 73.047 Q 252.209 73.441 252.221 73.793 A 174.13 174.13 0 0 0 252.222 73.804 Q 252.24 74.346 252.245 74.702 A 16.39 16.39 0 0 1 252.246 74.903 L 252.246 84.473 A 11.954 11.954 0 0 0 252.324 85.883 Q 252.408 86.585 252.581 87.172 A 5.354 5.354 0 0 0 252.905 88.013 A 5.441 5.441 0 0 0 253.708 89.229 A 4.523 4.523 0 0 0 254.687 90.064 A 6.298 6.298 0 0 0 256.469 90.824 A 7.797 7.797 0 0 0 257.3 90.992 A 20.789 20.789 0 0 0 259.617 91.197 A 24.128 24.128 0 0 0 260.449 91.211 L 260.742 91.211 L 260.742 95.411 L 233.838 95.411 L 233.838 91.211 L 234.619 91.211 A 21.229 21.229 0 0 0 236.67 91.116 A 17.621 17.621 0 0 0 237.817 90.967 A 6.876 6.876 0 0 0 239.364 90.532 A 5.723 5.723 0 0 0 240.405 89.966 A 4.757 4.757 0 0 0 241.633 88.716 A 6.366 6.366 0 0 0 242.163 87.769 A 6.387 6.387 0 0 0 242.577 86.506 Q 242.715 85.891 242.775 85.17 A 14.257 14.257 0 0 0 242.822 83.985 L 242.822 28.809 A 11.954 11.954 0 0 0 242.744 27.399 Q 242.661 26.697 242.487 26.11 A 5.354 5.354 0 0 0 242.163 25.269 A 5.549 5.549 0 0 0 241.311 23.991 A 4.71 4.71 0 0 0 240.381 23.194 A 6.388 6.388 0 0 0 238.534 22.381 A 7.838 7.838 0 0 0 237.769 22.217 A 18.775 18.775 0 0 0 235.439 21.988 A 21.73 21.73 0 0 0 234.619 21.973 L 233.35 21.973 L 233.35 17.774 L 250.83 17.774 L 251.855 26.807 L 252.246 26.807 A 25.629 25.629 0 0 1 254.074 23.643 A 22.468 22.468 0 0 1 254.785 22.657 A 14.624 14.624 0 0 1 258.057 19.507 A 14.441 14.441 0 0 1 261.535 17.741 A 16.608 16.608 0 0 1 262.256 17.505 A 16.193 16.193 0 0 1 265.078 16.933 A 21.306 21.306 0 0 1 267.529 16.797 A 25.329 25.329 0 0 1 272.112 17.194 A 19.381 19.381 0 0 1 276.27 18.433 A 15.762 15.762 0 0 1 282.666 23.462 Q 285.136 26.702 286.472 31.61 A 34.382 34.382 0 0 1 286.597 32.08 A 39.417 39.417 0 0 1 287.515 37.026 Q 287.833 39.59 287.913 42.503 A 72.432 72.432 0 0 1 287.939 44.483 A 65.798 65.798 0 0 1 287.718 50.032 Q 287.48 52.837 286.987 55.271 A 35.553 35.553 0 0 1 286.597 56.983 A 29.895 29.895 0 0 1 285.213 61.172 Q 284.142 63.725 282.666 65.674 A 15.686 15.686 0 0 1 276.27 70.728 A 19.767 19.767 0 0 1 271.351 72.094 A 26.015 26.015 0 0 1 267.529 72.364 A 22.592 22.592 0 0 1 264.62 72.185 A 17.454 17.454 0 0 1 262.305 71.729 A 16.344 16.344 0 0 1 259.238 70.571 A 14.361 14.361 0 0 1 258.081 69.922 A 15.237 15.237 0 0 1 254.761 67.139 A 19.233 19.233 0 0 1 252.246 63.575 Z M 30.615 71.387 L 0 71.387 L 0 67.188 L 1.27 67.188 A 21.229 21.229 0 0 0 3.32 67.093 A 17.621 17.621 0 0 0 4.468 66.944 A 6.971 6.971 0 0 0 6.107 66.473 A 5.96 5.96 0 0 0 7.08 65.943 A 4.716 4.716 0 0 0 8.442 64.514 A 6.071 6.071 0 0 0 8.838 63.77 A 6.285 6.285 0 0 0 9.225 62.577 Q 9.473 61.475 9.473 60.01 L 9.473 10.987 A 11.954 11.954 0 0 0 9.395 9.577 Q 9.311 8.874 9.138 8.288 A 5.354 5.354 0 0 0 8.813 7.447 A 5.549 5.549 0 0 0 7.961 6.168 A 4.71 4.71 0 0 0 7.031 5.371 A 6.147 6.147 0 0 0 5.152 4.564 A 7.54 7.54 0 0 0 4.419 4.419 A 20.789 20.789 0 0 0 2.102 4.214 A 24.128 24.128 0 0 0 1.27 4.2 L 0 4.2 L 0 0 L 30.615 0 A 43.054 43.054 0 0 1 37.915 0.592 A 33.133 33.133 0 0 1 44.385 2.369 A 27.221 27.221 0 0 1 53.815 8.445 A 26.483 26.483 0 0 1 54.614 9.278 A 28.71 28.71 0 0 1 59.572 16.843 A 35.594 35.594 0 0 1 60.986 20.459 A 42.16 42.16 0 0 1 62.732 28.277 A 56.773 56.773 0 0 1 63.184 35.596 A 56.595 56.595 0 0 1 62.622 43.749 A 43.813 43.813 0 0 1 61.133 50.415 A 33.314 33.314 0 0 1 58.017 57.541 A 28.192 28.192 0 0 1 55.029 61.695 A 26.451 26.451 0 0 1 45.721 68.508 A 30.962 30.962 0 0 1 44.873 68.872 Q 38.859 71.35 30.854 71.387 A 52.591 52.591 0 0 1 30.615 71.387 Z M 101.074 67.188 L 101.074 71.387 L 72.217 71.387 L 72.217 67.188 L 72.51 67.188 A 21.229 21.229 0 0 0 74.56 67.093 A 17.621 17.621 0 0 0 75.708 66.944 A 6.876 6.876 0 0 0 77.255 66.509 A 5.723 5.723 0 0 0 78.296 65.943 Q 79.395 65.186 80.054 63.77 A 6.121 6.121 0 0 0 80.455 62.577 Q 80.713 61.475 80.713 60.01 L 80.713 28.809 A 11.954 11.954 0 0 0 80.635 27.399 Q 80.551 26.697 80.378 26.11 A 5.354 5.354 0 0 0 80.054 25.269 A 5.549 5.549 0 0 0 79.201 23.991 A 4.71 4.71 0 0 0 78.271 23.194 A 6.388 6.388 0 0 0 76.425 22.381 A 7.838 7.838 0 0 0 75.659 22.217 A 18.775 18.775 0 0 0 73.329 21.988 A 21.73 21.73 0 0 0 72.51 21.973 L 72.217 21.973 L 72.217 17.774 L 87.598 17.774 L 89.502 27.686 L 89.99 27.686 A 71.144 71.144 0 0 1 91.475 24.484 A 61.666 61.666 0 0 1 91.992 23.462 A 13.996 13.996 0 0 1 94.322 20.184 A 13.188 13.188 0 0 1 94.507 19.996 A 10.074 10.074 0 0 1 97.139 18.119 A 12.274 12.274 0 0 1 98.193 17.652 A 11.28 11.28 0 0 1 100.164 17.099 Q 101.149 16.91 102.288 16.84 A 23.025 23.025 0 0 1 103.711 16.797 Q 109.18 16.797 111.841 18.702 Q 114.502 20.606 114.502 24.073 A 8.327 8.327 0 0 1 114.286 25.996 A 7.238 7.238 0 0 1 113.989 26.954 Q 113.477 28.272 112.354 29.224 Q 111.263 30.148 109.575 30.658 A 11.053 11.053 0 0 1 109.473 30.689 Q 108.106 31.087 106.268 31.176 A 22.667 22.667 0 0 1 105.176 31.202 A 23.359 23.359 0 0 0 105.093 29.16 Q 104.915 27.135 104.352 25.871 A 4.927 4.927 0 0 0 104.004 25.22 Q 102.944 23.564 100.447 23.406 A 8.603 8.603 0 0 0 99.902 23.389 A 5.559 5.559 0 0 0 96.582 24.439 A 9.263 9.263 0 0 0 94.741 26.205 A 11.473 11.473 0 0 0 94.019 27.222 A 16.922 16.922 0 0 0 92.779 29.589 A 21.097 21.097 0 0 0 92.163 31.202 Q 91.406 33.448 90.942 35.816 A 43.135 43.135 0 0 0 90.283 40.528 A 60.299 60.299 0 0 0 90.137 42.762 A 43.95 43.95 0 0 0 90.088 44.776 L 90.088 60.498 A 11.954 11.954 0 0 0 90.166 61.908 Q 90.249 62.611 90.423 63.197 A 5.354 5.354 0 0 0 90.747 64.038 Q 91.406 65.381 92.529 66.065 A 6.47 6.47 0 0 0 94.236 66.783 A 8.092 8.092 0 0 0 95.142 66.968 A 20.789 20.789 0 0 0 97.459 67.174 A 24.128 24.128 0 0 0 98.291 67.188 L 101.074 67.188 Z M 19.58 66.309 L 28.271 66.309 A 29.613 29.613 0 0 0 33.488 65.871 A 21.892 21.892 0 0 0 38.696 64.283 A 19.197 19.197 0 0 0 46.143 58.35 A 23.945 23.945 0 0 0 49.122 53.152 A 31.954 31.954 0 0 0 50.61 48.731 A 44 44 0 0 0 51.727 42.594 Q 52.053 39.719 52.094 36.518 A 72.392 72.392 0 0 0 52.1 35.596 A 59.978 59.978 0 0 0 51.535 27.074 Q 50.269 18.278 46.167 12.842 A 19.126 19.126 0 0 0 34.254 5.536 A 29.58 29.58 0 0 0 28.369 4.981 L 19.58 4.981 L 19.58 66.309 Z M 225.993 52.178 A 52.962 52.962 0 0 0 226.514 44.483 Q 226.514 40.747 226.066 37.529 A 34.259 34.259 0 0 0 224.927 32.251 A 27.756 27.756 0 0 0 223.471 28.457 A 21.024 21.024 0 0 0 220.337 23.609 A 18.505 18.505 0 0 0 213.037 18.482 A 23.436 23.436 0 0 0 208.611 17.245 A 29.94 29.94 0 0 0 203.32 16.797 A 38.179 38.179 0 0 0 202.243 16.812 Q 198.518 16.917 195.404 17.759 A 18.956 18.956 0 0 0 185.767 23.633 A 20.79 20.79 0 0 0 182.114 29.867 Q 179.834 35.795 179.834 44.483 Q 179.834 51.514 181.421 56.763 A 27.977 27.977 0 0 0 182.944 60.734 A 21.077 21.077 0 0 0 186.011 65.479 A 18.619 18.619 0 0 0 193.311 70.655 Q 197.607 72.364 203.027 72.364 Q 207.079 72.364 210.445 71.513 A 19.221 19.221 0 0 0 220.532 65.479 A 20.904 20.904 0 0 0 224.195 59.254 Q 225.415 56.104 225.993 52.178 Z M 189.502 44.483 Q 189.502 50.049 190.234 54.297 A 27.761 27.761 0 0 0 190.979 57.519 Q 191.468 59.159 192.137 60.523 A 15.481 15.481 0 0 0 192.603 61.402 A 12.013 12.013 0 0 0 194.786 64.207 A 10.492 10.492 0 0 0 196.851 65.723 A 11.021 11.021 0 0 0 200.051 66.887 Q 201.519 67.188 203.223 67.188 A 16.049 16.049 0 0 0 206.084 66.946 Q 207.775 66.64 209.155 65.945 A 9.673 9.673 0 0 0 209.57 65.723 Q 212.158 64.258 213.77 61.402 Q 215.207 58.854 215.926 55.198 A 31.634 31.634 0 0 0 216.089 54.297 A 48.416 48.416 0 0 0 216.573 50.328 Q 216.741 48.292 216.783 46.022 A 83.232 83.232 0 0 0 216.797 44.483 A 71.754 71.754 0 0 0 216.657 39.874 Q 216.522 37.778 216.256 35.925 A 40.35 40.35 0 0 0 216.064 34.717 Q 215.441 31.141 214.18 28.575 A 15.208 15.208 0 0 0 213.721 27.71 A 11.449 11.449 0 0 0 211.489 24.898 A 10.174 10.174 0 0 0 209.497 23.487 Q 207.038 22.154 203.562 22.076 A 19.438 19.438 0 0 0 203.125 22.071 A 16.589 16.589 0 0 0 200.264 22.304 Q 198.314 22.646 196.777 23.487 A 10.528 10.528 0 0 0 193.106 26.867 A 12.946 12.946 0 0 0 192.578 27.71 A 17.197 17.197 0 0 0 191.27 30.621 Q 190.767 32.066 190.418 33.753 A 31.274 31.274 0 0 0 190.234 34.717 Q 189.605 38.326 189.516 42.944 A 80.307 80.307 0 0 0 189.502 44.483 Z M 265.82 23.194 A 19.591 19.591 0 0 0 263.073 23.376 Q 260.934 23.679 259.302 24.488 A 9.894 9.894 0 0 0 255.133 28.408 A 11.757 11.757 0 0 0 255.127 28.418 A 15.21 15.21 0 0 0 253.87 31.165 Q 253.258 32.916 252.905 35.059 Q 252.246 39.063 252.246 44.483 A 70.816 70.816 0 0 0 252.372 48.821 Q 252.534 51.459 252.905 53.711 Q 253.494 57.287 254.823 59.85 A 14.35 14.35 0 0 0 255.151 60.45 A 10.959 10.959 0 0 0 257.667 63.453 A 10.186 10.186 0 0 0 259.351 64.576 A 11.021 11.021 0 0 0 262.095 65.574 Q 263.38 65.867 264.875 65.942 A 20.991 20.991 0 0 0 265.918 65.967 A 13.206 13.206 0 0 0 268.541 65.72 A 9.465 9.465 0 0 0 271.558 64.576 A 9.876 9.876 0 0 0 274.409 61.955 A 12.716 12.716 0 0 0 275.366 60.45 A 17.475 17.475 0 0 0 276.581 57.615 Q 277.175 55.835 277.539 53.687 A 45.138 45.138 0 0 0 278.006 49.924 Q 278.169 47.995 278.209 45.844 A 77.382 77.382 0 0 0 278.223 44.385 A 70.058 70.058 0 0 0 278.094 40.022 Q 277.968 38.009 277.719 36.237 A 38.548 38.548 0 0 0 277.539 35.083 A 26.658 26.658 0 0 0 276.851 32.072 Q 276.41 30.574 275.816 29.332 A 14.325 14.325 0 0 0 275.366 28.467 A 11.009 11.009 0 0 0 273.536 26.038 A 9.302 9.302 0 0 0 271.509 24.512 A 10.139 10.139 0 0 0 268.452 23.428 A 14.055 14.055 0 0 0 265.82 23.194 Z"/></g></svg>